<svg xmlns="http://www.w3.org/2000/svg" xmlns:xlink="http://www.w3.org/1999/xlink" viewBox="0 0 651.37 367.11"><defs><style>.cls-1{isolation:isolate;}.cls-2{fill:#c0e4fa;}.cls-3{fill:#282f39;}.cls-4{opacity:0.48;}.cls-5{fill:#e8eefa;}.cls-6{fill:#fff;}.cls-7{fill:#e1dff7;}.cls-8{fill:#c6c5ef;}.cls-9{fill:url(#linear-gradient);}.cls-10{fill:#6a61d8;}.cls-11{fill:#867df4;}.cls-12{fill:#7c6aea;}.cls-13{fill:#9790f4;}.cls-14{fill:none;}.cls-15{fill:url(#linear-gradient-2);}.cls-16{fill:#7865e5;}.cls-17{fill:#9177fe;}.cls-18,.cls-19{fill:#e6f3f9;}.cls-19,.cls-21{mix-blend-mode:multiply;}.cls-20{fill:#ff85c6;}.cls-21{opacity:0.13;}</style><linearGradient id="linear-gradient" x1="261.08" y1="289.27" x2="132.41" y2="159.27" gradientUnits="userSpaceOnUse"><stop offset="0" stop-color="#53e5d6"/><stop offset="0.87" stop-color="#40bad6"/></linearGradient><linearGradient id="linear-gradient-2" x1="91.51" y1="143.72" x2="244.84" y2="289.72" xlink:href="#linear-gradient"/></defs><title>search</title><g class="cls-1"><g id="BACKGROUND"><path class="cls-2" d="M375,252.5c3.22,0,3.22-5,0-5s-3.22,5,0,5Z" transform="translate(0 -4.53)"/><path class="cls-3" d="M375,250.25a.25.25,0,0,0,0-.5.25.25,0,0,0,0,.5Z" transform="translate(0 -4.53)"/></g><g id="OBJECTS"><g class="cls-4"><path class="cls-5" d="M472.38,358.71c-26.95-41.87-74.23-66.1-121.45-81.91-62.72-21-128.61-30.44-193.13-45-37.49-8.44-75.39-19-107.1-40.69A177.57,177.57,0,0,1,0,137.26V363.51a8.13,8.13,0,0,0,8.14,8.13H479.8C477.54,367.22,475.08,362.9,472.38,358.71Z" transform="translate(0 -4.53)"/></g><path class="cls-6" d="M37.64,233.47a17.68,17.68,0,0,0,.55,8.81c3.09,9.51,14.79,16.07,23.57,19.51-2.72,2.83-4.93,6.34-5.42,10.24C55,282.86,67,285.2,75.23,283.08c12.09-3.09,21.21-12.76,33.16-16.25a6.87,6.87,0,0,1,4.62-.13,4.62,4.62,0,0,1,2.45-3.16,68.14,68.14,0,0,1-8.56-16.78c-2.84-8.2-6-19.53-15.27-22.59-7.73-2.56-15.63,5.15-14.52,13-4.68-5.51-9.87-11-16.59-13.64s-15.33-1.88-20,3.68A14.25,14.25,0,0,0,37.64,233.47Z" transform="translate(0 -4.53)"/><path class="cls-7" d="M49.4,250.27q7.66-1.28,15.39-2.17-10.58-5.28-20.66-11.55c-.68-.42.12-1.37.78-1q10.2,6.36,20.93,11.67-3.09-8.52-6-17.11a.62.62,0,0,1,1.17-.42q3.07,9.2,6.41,18.3a248.56,248.56,0,0,0,27.15,11.3,97.23,97.23,0,0,0-6.43-22.74c-.31-.73.85-1.15,1.16-.41a97.86,97.86,0,0,1,6.54,23.31.82.82,0,0,1,0,.28A248.91,248.91,0,0,0,130.88,269a.62.62,0,0,1-.21,1.22A250.77,250.77,0,0,1,95.49,261a128.7,128.7,0,0,1-28.42,14,.62.62,0,0,1-.42-1.16A127.6,127.6,0,0,0,94,260.43,249.9,249.9,0,0,1,66.84,249.1q-8.7,1-17.34,2.4C48.72,251.63,48.62,250.4,49.4,250.27Z" transform="translate(0 -4.53)"/><path class="cls-7" d="M103.37,211.62c-15,.3-29,.76-43.46-4.26-4.79-1.66-9.58-3.85-12.92-7.66s-4.87-9.59-2.52-14.07c1.89-3.62,5.82-5.71,9.73-6.9-8.2-2.07-13.71-9.8-16.93-17.62-4.51-11-5.08-25,7.07-31.06,12.54-6.22,26.89,10.69,33.74,19.22a11.09,11.09,0,0,1,5.06-9.63c15.88-10.6,25.91,18,28.27,29.09,2.24,10.54,2.79,21.38,5,31.93" transform="translate(0 -4.53)"/><path class="cls-6" d="M46.85,144.21q9.21,12.33,19.36,23.9a56.62,56.62,0,0,1-17.12-1c-1.12-.24-1.36,1.51-.25,1.75a58.28,58.28,0,0,0,18.77.9h0q11.12,12.54,23.27,24.08a145.17,145.17,0,0,1-29.84.27c-1.13-.11-1.38,1.64-.25,1.74a147.33,147.33,0,0,0,31.35-.37,1.07,1.07,0,0,0,.37-.12q13.41,12.58,28,23.89a.88.88,0,0,0,1.08-1.39q-14.11-10.93-27.15-23.14a.86.86,0,0,0,.28-.46,110.19,110.19,0,0,0,1.48-38.49.88.88,0,0,0-1.75.22,108.67,108.67,0,0,1-1.37,37.46q-12.43-11.73-23.8-24.51a.89.89,0,0,0,.24-.66,77.7,77.7,0,0,0-5.35-25.95.88.88,0,0,0-1.63.67,76.16,76.16,0,0,1,5.16,24.14q-10.19-11.6-19.43-24C47.58,142.22,46.17,143.29,46.85,144.21Z" transform="translate(0 -4.53)"/><path class="cls-5" d="M150.31,207.09a271.6,271.6,0,0,1-26.11-35.28A28.28,28.28,0,0,0,129,164c1.51-3.75,2.15-8.32,0-11.74a3,3,0,0,0-1.08-1.11,2.74,2.74,0,0,0-3,.72,9.26,9.26,0,0,0-2.39,4.57,25.09,25.09,0,0,0,0,12.59q-5.22-8.62-9.81-17.62a29,29,0,0,0,4.82-7.91c1.51-3.76,2.14-8.33,0-11.75a3.05,3.05,0,0,0-1.09-1.11,2.74,2.74,0,0,0-3,.72A9.26,9.26,0,0,0,111,135.9a25,25,0,0,0-.19,11.78q-4.12-8.4-7.69-17.07a.76.76,0,0,0,.22-.18,28.25,28.25,0,0,0,5.31-7.81c1.69-3.68,2.53-8.21.51-11.73a3,3,0,0,0-1-1.16,2.74,2.74,0,0,0-3,.57,9.2,9.2,0,0,0-2.6,4.45,25,25,0,0,0-.35,13.56q-3.6-9-6.56-18.25a.93.93,0,0,0,.27-.12,27.87,27.87,0,0,0,6.86-6.41c2.44-3.2,4.24-7.42,3-11.3a3.14,3.14,0,0,0-.76-1.37,2.75,2.75,0,0,0-3-.12,9.1,9.1,0,0,0-3.5,3.74,24.78,24.78,0,0,0-3.24,13.76l.28,1.49h0q-2.69-8.45-4.84-17.06a28,28,0,0,0,6.76-6.32c2.44-3.2,4.24-7.42,3-11.31a3.1,3.1,0,0,0-.76-1.36,2.71,2.71,0,0,0-3-.12,9,9,0,0,0-3.5,3.74A24.8,24.8,0,0,0,89.9,89.43q-2-8.22-3.39-16.58a28.91,28.91,0,0,0,2.86-8.21c.74-4,.45-8.61-2.36-11.51a2.91,2.91,0,0,0-1.28-.86A2.71,2.71,0,0,0,83,53.59a9.34,9.34,0,0,0-1.44,5,25,25,0,0,0,3.25,13.8l.59.78q.89,5.09,2,10.13a28.59,28.59,0,0,0-3.95-5.37C80.63,75,76.8,72.53,72.89,73.2A2.43,2.43,0,0,0,71,76.85,9.26,9.26,0,0,0,74.11,81a23.43,23.43,0,0,0,12.83,5.29l1,0q1.72,7.73,3.89,15.31a28.71,28.71,0,0,0-5.43-6.29c-3-2.62-7.11-4.63-10.93-3.52a2.85,2.85,0,0,0-1.34.73A2.9,2.9,0,0,0,74,95.53a9.23,9.23,0,0,0,3.55,3.73,23.33,23.33,0,0,0,13.31,3.85l1.42-.23q2.64,9.08,5.86,17.93a28.28,28.28,0,0,0-5.21-5.16c-3.2-2.44-7.37-4.19-11.11-2.85a2.45,2.45,0,0,0-1.31,3.93,9.19,9.19,0,0,0,3.77,3.51,23.24,23.24,0,0,0,13.5,3l1.16-.26q3.18,8.48,6.89,16.71a28.39,28.39,0,0,0-4.66-4c-3.31-2.28-7.56-3.83-11.23-2.3a2.84,2.84,0,0,0-1.26.87,2.94,2.94,0,0,0,.14,3.12,9.07,9.07,0,0,0,3.92,3.32A23.25,23.25,0,0,0,106.34,143l.87-.24q4,8.61,8.57,16.92a27.68,27.68,0,0,0-3.66-3c-3.31-2.28-7.56-3.83-11.23-2.3a2.79,2.79,0,0,0-1.26.87,2.92,2.92,0,0,0,.13,3.12,9.15,9.15,0,0,0,3.93,3.32,23.25,23.25,0,0,0,13.62,2.36l.8-.22q3.54,6.16,7.38,12.13a28.09,28.09,0,0,0-6.36-3.14c-3.77-1.3-8.26-1.64-11.4.83a3.17,3.17,0,0,0-1,1.19,3,3,0,0,0,.94,3,9,9,0,0,0,4.64,2.14A23.06,23.06,0,0,0,126,178.56l.8-.48A272,272,0,0,0,149.4,207.8C149.9,208.37,150.81,207.66,150.31,207.09Z" transform="translate(0 -4.53)"/><path class="cls-5" d="M317,97.91a23.71,23.71,0,0,1,6.21,10.1c4,12.82-3.78,29.08-10.75,39.65,5.18,1,10.33,3.13,13.88,7,9.86,10.84-1.46,22.68-12.16,26.76-15.67,6-33.16,2.42-49,7.85-2,.69-4.08,1.62-5.17,3.44a6.18,6.18,0,0,0-5.13-1.57,91.43,91.43,0,0,0-3.61-25c-3.24-11.21-8.55-26.07-.75-36.62,6.51-8.8,21.15-6.46,26,3,.86-9.68,2.34-19.67,7.63-27.82s15.37-13.94,24.75-11.41A19,19,0,0,1,317,97.91Z" transform="translate(0 -4.53)"/><path class="cls-6" d="M317.13,125.45q-9.4,4.54-18.56,9.54,7.5-14,13.71-28.68c.41-1-1.19-1.4-1.6-.44q-6.26,14.86-13.92,29-3.21-11.74-6.69-23.41a.83.83,0,0,0-1.59.44q3.72,12.47,7.13,25a334.27,334.27,0,0,1-21,33.42A130.19,130.19,0,0,1,264,140.46c-.23-1.05-1.83-.6-1.6.44a132.22,132.22,0,0,0,10.89,30.64.76.76,0,0,0,.23.29,334.82,334.82,0,0,1-31.3,37.28c-.75.76.42,1.94,1.17,1.17a336.27,336.27,0,0,0,31.42-37.42,172.89,172.89,0,0,0,42-6.68.83.83,0,0,0-.44-1.6,171,171,0,0,1-40.35,6.57,336.14,336.14,0,0,0,21-33.47Q307.37,132,318,126.88C318.93,126.42,318.09,125,317.13,125.45Z" transform="translate(0 -4.53)"/><path class="cls-8" d="M248.68,219.45a206.69,206.69,0,0,0,30.18-15.16,22,22,0,0,1-.72-7c.19-3.11,1.27-6.47,4-8.06a2.21,2.21,0,0,1,1.13-.38,2.18,2.18,0,0,1,1.84,1.52,7.07,7.07,0,0,1,.16,4A18.58,18.58,0,0,1,281,203q6.57-4.11,12.81-8.69a21.93,21.93,0,0,1-.74-7.12c.19-3.11,1.27-6.47,3.95-8.06a2.39,2.39,0,0,1,1.14-.39,2.21,2.21,0,0,1,1.84,1.53,7,7,0,0,1,.15,4,18.57,18.57,0,0,1-3.81,8.17q5.72-4.34,11.13-9.06a.54.54,0,0,1-.1-.2,21.84,21.84,0,0,1-1.12-7.22c0-3.12,1-6.53,3.57-8.24a2.28,2.28,0,0,1,1.11-.44,2.19,2.19,0,0,1,1.91,1.43,7,7,0,0,1,.34,4,18.68,18.68,0,0,1-4.29,9.45q5.55-5,10.73-10.27a.65.65,0,0,1-.15-.18,21.91,21.91,0,0,1-2.69-6.79c-.65-3.05-.5-6.58,1.66-8.83a2.3,2.3,0,0,1,1-.67,2.19,2.19,0,0,1,2.18,1,7.1,7.1,0,0,1,1.21,3.8,18.59,18.59,0,0,1-2.32,10.58l-.7.93h0q4.72-4.86,9.12-10a21.9,21.9,0,0,1-2.64-6.7c-.65-3-.5-6.58,1.66-8.83a2.3,2.3,0,0,1,1-.67,2.19,2.19,0,0,1,2.18,1,7.1,7.1,0,0,1,1.21,3.79,18.59,18.59,0,0,1-1.75,9.49q4.13-5,7.93-10.22a21.89,21.89,0,0,1,.74-6.64c.82-3,2.56-6.08,5.51-7.09a2.31,2.31,0,0,1,1.19-.15,2.18,2.18,0,0,1,1.49,1.87,7,7,0,0,1-.66,3.92,18.6,18.6,0,0,1-6.9,8.36l-.68.32q-2.32,3.19-4.77,6.29A21.87,21.87,0,0,1,339,154c2.93-1.07,6.45-1.41,9,.42a2.38,2.38,0,0,1,.81.89,2.19,2.19,0,0,1-.67,2.29,7.15,7.15,0,0,1-3.59,1.73,18.62,18.62,0,0,1-10.8-.84L333,158q-3.79,4.71-7.85,9.17a21.73,21.73,0,0,1,5.92-2.43c3-.74,6.55-.71,8.87,1.38a2.37,2.37,0,0,1,.7,1,2.17,2.17,0,0,1-.91,2.21,7,7,0,0,1-3.75,1.33,18.64,18.64,0,0,1-10.65-2l-.93-.66q-4.87,5.32-10.12,10.29a22.17,22.17,0,0,1,5.39-1.73c3.07-.56,6.59-.31,8.78,1.91a2.36,2.36,0,0,1,.64,1,2.18,2.18,0,0,1-1,2.15,7,7,0,0,1-3.82,1.1,18.52,18.52,0,0,1-10.52-2.63l-.73-.58q-5.07,4.71-10.44,9.09a21.75,21.75,0,0,1,4.64-1.16c3.09-.41,6.59,0,8.67,2.33a2.31,2.31,0,0,1,.59,1,2.19,2.19,0,0,1-1.14,2.1,7.05,7.05,0,0,1-3.87.92,18.7,18.7,0,0,1-10.38-3.13l-.53-.47q-5.7,4.53-11.69,8.65a22,22,0,0,1,3.58-.79c3.09-.41,6.6,0,8.68,2.33a2.47,2.47,0,0,1,.59,1,2.18,2.18,0,0,1-1.14,2.1,7.07,7.07,0,0,1-3.87.92,18.62,18.62,0,0,1-10.38-3.13l-.49-.43q-4.55,3-9.25,5.77a21.7,21.7,0,0,1,5.52.06c3.09.42,6.36,1.75,7.75,4.54a2.3,2.3,0,0,1,.29,1.16,2.17,2.17,0,0,1-1.65,1.72,7,7,0,0,1-4-.14,18.58,18.58,0,0,1-9.18-5.77l-.4-.61a208.17,208.17,0,0,1-25.83,12.58C248.55,220.47,248.14,219.67,248.68,219.45Z" transform="translate(0 -4.53)"/><path class="cls-7" d="M277.86,251.4c3.92-12.8,7.45-24.86,15.74-35.74,2.74-3.6,5.95-7.06,10.11-8.84s9.5-1.46,12.66,1.78c2.55,2.62,3.22,6.55,3.14,10.2,4.05-6.39,12.15-8.92,19.69-9.47,10.57-.78,22.68,2.66,24.41,14.66,1.8,12.39-16.58,19.86-25.73,23.31a9.91,9.91,0,0,1,6.77,7c4.57,16.44-22.52,17-32.6,15.9-9.57-1-18.93-3.58-28.5-4.67" transform="translate(0 -4.53)"/><path class="cls-6" d="M350.89,222.18q-13,4.38-25.7,9.78a50.28,50.28,0,0,1,5.63-14.26c.51-.88-.91-1.58-1.42-.71a52.18,52.18,0,0,0-6,15.7v0q-13.74,5.94-26.94,13.06a129.75,129.75,0,0,1,8.09-25.43c.41-.93-1-1.63-1.41-.7a132,132,0,0,0-8.42,26.73.69.69,0,0,0,0,.35q-14.43,7.89-28.1,17.1a.79.79,0,0,0,.88,1.31q13.23-8.94,27.23-16.61a.71.71,0,0,0,.31.36,98.55,98.55,0,0,0,32.29,12,.79.79,0,0,0,.3-1.55,97.24,97.24,0,0,1-31.44-11.6q13.43-7.29,27.45-13.39a.81.81,0,0,0,.49.39,69.42,69.42,0,0,0,23.55,2.69.79.79,0,0,0-.12-1.57,68.27,68.27,0,0,1-21.95-2.35q12.69-5.42,25.8-9.82A.79.79,0,0,0,350.89,222.18Z" transform="translate(0 -4.53)"/><path class="cls-9" d="M274.59,158.73H182.06a8.32,8.32,0,0,1-7.7-5.18l-3-7.47a9.81,9.81,0,0,0-9.06-6H112.86a9.82,9.82,0,0,0-9.82,9.81V273.93a12.78,12.78,0,0,0,12.78,12.77H274.59a12.77,12.77,0,0,0,12.77-12.77V171.51A12.78,12.78,0,0,0,274.59,158.73Z" transform="translate(0 -4.53)"/><rect class="cls-10" x="154.3" y="76.21" width="114.92" height="118.6" rx="8.32" ry="8.32"/><rect class="cls-11" x="168.12" y="92.24" width="87.27" height="9" rx="2.72" ry="2.72"/><rect class="cls-11" x="168.12" y="111.37" width="87.27" height="9" rx="2.72" ry="2.72"/><rect class="cls-11" x="168.12" y="130.49" width="87.27" height="9" rx="2.72" ry="2.72"/><rect class="cls-11" x="168.12" y="149.62" width="87.27" height="9" rx="2.72" ry="2.72"/><rect class="cls-12" x="129.1" y="68.63" width="122.11" height="126.02" rx="8.32" ry="8.32"/><rect class="cls-13" x="143.79" y="85.66" width="92.73" height="9.56" rx="2.72" ry="2.72"/><rect class="cls-13" x="143.79" y="105.98" width="92.73" height="9.56" rx="2.72" ry="2.72"/><rect class="cls-13" x="143.79" y="126.31" width="92.73" height="9.56" rx="2.72" ry="2.72"/><rect class="cls-13" x="143.79" y="146.63" width="92.73" height="9.56" rx="2.72" ry="2.72"/><rect class="cls-14" width="651.37" height="367.11"/><path class="cls-15" d="M263.37,167.79H170.84a8.3,8.3,0,0,1-7.69-5.18l-3-7.48a9.82,9.82,0,0,0-9.06-6H101.64a9.81,9.81,0,0,0-9.81,9.81V283a12.77,12.77,0,0,0,12.77,12.78H263.37A12.78,12.78,0,0,0,276.14,283V180.56A12.77,12.77,0,0,0,263.37,167.79Z" transform="translate(0 -4.53)"/><rect class="cls-6" x="104.05" y="153.12" width="42.43" height="12.12" rx="3.62" ry="3.62"/><rect class="cls-16" x="256.43" y="242.09" width="10.25" height="40.56" transform="translate(-107.35 291.87) rotate(-50.36)"/><rect class="cls-17" x="289.57" y="252.73" width="17.67" height="80.35" rx="7.97" ry="7.97" transform="translate(-117.52 331.3) rotate(-50.36)"/><circle class="cls-12" cx="223.44" cy="230.8" r="42.31" transform="matrix(0.99, -0.1, 0.1, 0.99, -22.01, 19.03)"/><circle class="cls-18" cx="223.44" cy="230.8" r="34.69" transform="translate(-97.75 221.06) rotate(-45)"/><path class="cls-19" d="M223.83,265.48q-3.22-34.41-6.46-68.83A34.55,34.55,0,0,0,202.65,203q2.78,29.46,5.53,58.92A34.61,34.61,0,0,0,223.83,265.48Z" transform="translate(0 -4.53)"/><path class="cls-19" d="M241.92,260.16q-2.89-30.83-5.78-61.65a34.85,34.85,0,0,0-9-2.2q3.16,33.84,6.35,67.68A34.87,34.87,0,0,0,241.92,260.16Z" transform="translate(0 -4.53)"/><path class="cls-20" d="M263.12,321.41a35.58,35.58,0,0,0,14.46-15.14A53.24,53.24,0,0,0,283,285.88a11,11,0,0,1,1.13-5c.9-1.47,2.92-2.43,4.41-1.54,1.19.71,1.55,2.24,1.76,3.61a56.37,56.37,0,0,1,0,17.25,57.69,57.69,0,0,1,13.65-24.85c.85-.91,2-1.87,3.22-1.44s1.42,1.65,1.49,2.75c.28,4.08-1.63,6.63-3.16,10.08-2,4.56-3.46,9.5-5.16,14.2,1.79-4.94,6.89-10.42,10.25-14.41,2-2.37,3.89-5.15,6.52-6.85s6.88-1.61,6.92,2.39c.05,4.16-4.45,9.88-6.68,13.15-2.92,4.27-6.23,8.24-9.53,12.2A32.09,32.09,0,0,1,325.29,297c1.59-.35,3.53-.46,4.57.79a3.44,3.44,0,0,1,.67,2.4c-.16,2.74-2.25,4.94-4.33,6.74a65.76,65.76,0,0,1-12.75,8.67,86.39,86.39,0,0,1,11.22-1.27,7.39,7.39,0,0,1,3.59.47,3.94,3.94,0,0,1,2,4.5c-1.13,3.8-10,5.26-13.3,6.46a75.4,75.4,0,0,0-12,5.15c-5.61,3.26-10.4,7.74-15.78,11.36-3.84,2.58-8.17,4.81-12.79,5.5-3.91.59-6.9-1.35-10.72-1.69" transform="translate(0 -4.53)"/><path class="cls-17" d="M283.15,330.43c-.15-.21-.37-.49-.62-.81s-.67-.85-1-1.27a173.26,173.26,0,0,0-11.75-13.07c-.92-.91-1.85-1.81-2.78-2.71-25.36,14.52-55,23.42-84.15,24.25-32.86.93-65.45-6.5-95.29-20a193,193,0,0,1-63.26-45.68C19,265.36,8.38,252.82,0,241.74v129.9H264.17a209.83,209.83,0,0,0,18.68-16.3c.92-.9,5.24-5.8,9.64-11.23-1.25-2-2.52-4-3.84-5.9C286.86,335.58,285.05,333,283.15,330.43Z" transform="translate(0 -4.53)"/><g class="cls-21"><path class="cls-17" d="M283.15,330.43c-.2-.27-.51-.68-.84-1.09a236.93,236.93,0,0,1-32.89,14c-59.07,20.38-125.7,23.87-183.33-.3A189,189,0,0,1,0,296.35v75.29H264.17a209.83,209.83,0,0,0,18.68-16.3c.92-.9,5.24-5.8,9.64-11.23-1.25-2-2.52-4-3.84-5.9C286.86,335.58,285.05,333,283.15,330.43Z" transform="translate(0 -4.53)"/></g><path class="cls-10" d="M257.47,317.65c-1,.48-1.92.93-2.88,1.39,6.76,7.53,13.4,15.18,19.65,23.12q4.81,6.12,9.17,12.59c.48-.52,1.17-1.28,2-2.23q-3.71-5.49-7.73-10.78C271.34,333.42,264.49,325.47,257.47,317.65Z" transform="translate(0 -4.53)"/></g></g></svg>